Coordinates
version=1
nRows=12
nColumns=24
inDegrees=yes

Units are S.I. units (second, meters, Newtons, ...)
Angles are in degrees.

endheader
time	pelvis_tilt	pelvis_list	pelvis_rotation	pelvis_tx	pelvis_ty	pelvis_tz	hip_flexion_r	hip_adduction_r	hip_rotation_r	knee_angle_r	ankle_angle_r	subtalar_angle_r	mtp_angle_r	hip_flexion_l	hip_adduction_l	hip_rotation_l	knee_angle_l	ankle_angle_l	subtalar_angle_l	mtp_angle_l	lumbar_extension	lumbar_bending	lumbar_rotation
      4.39500000	    -11.77786295	      1.58163763	     -1.36088521	     -1.81193157	     -0.01241667	      0.46211625	     36.05932340	     -1.36229030	     -4.46341215	    -52.15778992	    -13.51597489	    -13.80892493	     13.97142486	      8.05314995	      4.98856920	      8.57558453	    -10.51775103	      3.91411673	      2.80204456	      6.82294636	      6.82991448	     -2.14863564	     -4.47853329
      4.40000000	    -11.83770903	      1.42294943	     -0.90969586	     -1.80601449	     -0.01259434	      0.46191713	     36.41140018	     -1.42968929	     -4.90423167	    -50.68082656	    -13.03015795	    -13.32293505	     13.87979132	      7.52458616	      4.84892965	      8.86628464	    -10.16020591	      4.01689186	      2.94746977	      6.82568219	      6.82305857	     -2.08358293	     -4.94443136
      4.40500000	    -11.90955292	      1.26790889	     -0.45770707	     -1.80011827	     -0.01282646	      0.46172629	     36.73755201	     -1.50596424	     -5.33091099	    -49.12027398	    -12.55078212	    -12.77476883	     13.83896188	      7.02861784	      4.70611586	      9.14065209	     -9.83301363	      4.12389629	      3.11441285	      6.85337070	      6.82587115	     -2.02242005	     -5.41258259
      4.41000000	    -11.95898332	      1.12607838	      0.02224671	     -1.79426682	     -0.01307142	      0.46153245	     36.99709718	     -1.61128355	     -5.74845221	    -47.48130366	    -12.03551031	    -12.13489306	     13.82009182	      6.53743759	      4.57630145	      9.39937972	     -9.54854311	      4.22196355	      3.29215693	      6.89850100	      6.79372748	     -1.98326120	     -5.93445197
      4.41500000	    -12.10363252	      0.94949564	      0.39349970	     -1.78835741	     -0.01344650	      0.46150448	     37.31740747	     -1.60535166	     -6.05437481	    -45.73217416	    -11.63023460	    -11.49286190	     13.88385170	      6.14931276	      4.38356576	      9.58465458	     -9.27368114	      4.33160582	      3.45622652	      6.95288882	      6.87809537	     -1.89561220	     -6.29294831
      4.42000000	    -12.12694469	      0.83473113	      0.94761794	     -1.78253356	     -0.01375594	      0.46125605	     37.46572542	     -1.80644625	     -6.53351040	    -43.95598994	    -11.03509985	    -10.63113876	     14.01101001	      5.66717035	      4.27551788	      9.88939455	     -9.04493054	      4.46869601	      3.73580669	      7.07672015	      6.80937887	     -1.90284668	     -6.84779818
      4.42500000	    -12.20034607	      0.69342838	      1.40947924	     -1.77666311	     -0.01413387	      0.46114086	     37.62319127	     -1.90870384	     -6.88771761	    -42.08392122	    -10.51390276	     -9.72112430	     14.12093374	      5.24533720	      4.12036859	     10.11995908	     -8.83422469	      4.59003112	      3.97528125	      7.19002851	      6.80275896	     -1.86782546	     -7.28755301
      4.43000000	    -12.27759531	      0.56344533	      1.87146592	     -1.77079033	     -0.01455538	      0.46106451	     37.74462488	     -2.02117674	     -7.21788055	    -40.14902932	     -9.98730487	     -8.73598950	     14.26139272	      4.84968734	      3.97077375	     10.33592476	     -8.66137175	      4.71908352	      4.23523975	      7.32689638	      6.79961438	     -1.84974515	     -7.71370839
      4.43500000	    -12.35281316	      0.44282377	      2.33477444	     -1.76489970	     -0.01501229	      0.46099941	     37.82303923	     -2.14477870	     -7.52185445	    -38.15881670	     -9.46903466	     -7.68077428	     14.40861105	      4.47047774	      3.82675559	     10.53851341	     -8.52357707	      4.85337196	      4.50907069	      7.48162071	      6.79431065	     -1.84333067	     -8.12115740
      4.44000000	    -12.44874572	      0.32138528	      2.76938542	     -1.75892398	     -0.01552352	      0.46097435	     37.88538874	     -2.25744533	     -7.81014431	    -36.12263934	     -9.00016038	     -6.58442381	     14.55842540	      4.11181504	      3.67290682	     10.72447331	     -8.38876032	      4.98340449	      4.79046600	      7.64010927	      6.82599067	     -1.83059725	     -8.45538757
      4.44500000	    -12.50625318	      0.22335097	      3.23257453	     -1.75297339	     -0.01602396	      0.46092760	     37.86597929	     -2.40667724	     -8.06908823	    -34.05303891	     -8.52975303	     -5.43253683	     14.67206058	      3.74826484	      3.54455167	     10.91505337	     -8.32089805	      5.11353443	      5.09211563	      7.82507969	      6.80626428	     -1.84145611	     -8.84656500
      4.45000000	    -12.52016671	      0.14151936	      3.72222859	     -1.74704761	     -0.01651476	      0.46090563	     37.76575132	     -2.58414339	     -8.32836800	    -31.97065446	     -8.07033817	     -4.25729059	     14.70582921	      3.37180744	      3.42902253	     11.10893799	     -8.31300777	      5.25002550	      5.40044084	      8.03507224	      6.73006582	     -1.88278974	     -9.24883174
